# xmcd
#
# Track frame offsets:
#	150
#	14670
#	28125
#	36930
#	46302
#	58885
#	70780
#	81397
#	91072
#	102580
#	112750
#	124532
#	137685
#	146747
#	159985
#	170127
#	180687
#	190222
#	199447
#	208390
#	216350
#	226565
#	240770
#	254045
#	263430
#	274095
#	284850
#	291987
#	302910
#	316300
#
# Disc length: 4410 seconds
#
# Revision: 1
# Processed by: cddbd v1.5.1PL0 Copyright (c) Steve Scherf et al.
# Submitted via: CDex 1.50Beta5
#
DISCID=cf11381e
DTITLE=Various Artist - EUROBEAT FLASH Vol.20 〜ANNIVERSARY NON-STOP MIX〜 B4 ZA BEST SIDE
DYEAR=1900
DGENRE=Rock
TTITLE0=MAD COW
TTITLE1=BAZOOKA MAN
TTITLE2=MAYDAY
TTITLE3=DOCTOR OF LOVE
TTITLE4=PARADISE
TTITLE5=BE MY LOVER
TTITLE6=THIS IS THE WAY
TTITLE7=RANAWAY
TTITLE8=QUEEN OF THE NIGHT
TTITLE9=TAKE MY GUM
TTITLE10=PUSH ME BOOM BOOM
TTITLE11=NO NO
TTITLE12=BAD WORLD
TTITLE13=TELEPHONE
TTITLE14=HEY SUPERMAN
TTITLE15=TECHNOTRONIC FLIGHT
TTITLE16=SUNDAY NIGHT
TTITLE17=DIABLO MAN
TTITLE18=DISCOMANIA
TTITLE19=BEAST GIRL
TTITLE20=BATMAN IS BRUCE WAYNE
TTITLE21=HEY HEY BABY CRY
TTITLE22=TOGETHER FOREVER
TTITLE23=I CAN`T LIVE WITHOUT YOU
TTITLE24=VIRTUL LOVE
TTITLE25=DANCING IN THE JUNGLE
TTITLE26=TAKE MY HAMMER
TTITLE27=TORNADO SUPERCHILD
TTITLE28=SUCK A BAZOOKA
TTITLE29=BOOM BOOM SEXY LADY
EXTD=
EXTT0=
EXTT1=
EXTT2=
EXTT3=
EXTT4=
EXTT5=
EXTT6=
EXTT7=
EXTT8=
EXTT9=
EXTT10=
EXTT11=
EXTT12=
EXTT13=
EXTT14=
EXTT15=
EXTT16=
EXTT17=
EXTT18=
EXTT19=
EXTT20=
EXTT21=
EXTT22=
EXTT23=
EXTT24=
EXTT25=
EXTT26=
EXTT27=
EXTT28=
EXTT29=
PLAYORDER=
